Patient4_TMGait_0pt7_02_left_25_EMG.mot
version=1
nRows=27
nColumns=33
inDegrees=no
endheader
time	1LAddLong	2LGlutMax	3LGlutMed	4LIliopsoas	5LSemiMemb	6LBicFemLong	7LRecFem	8LVastMed	9LVastLat	10LGasMed	11LTibAnt	12lTibPost	13LPeroneusLong	14LSol	15LExtDigLong	16LFlexDigLong	17RAddLong	18RGlutMax	19RGlutMed	20RIliopsoas	21RSemiMemb	22RBicFemLong	23RRecFem	24RVastMed	25RVastLat	26RGasMed	27RTibAnt	28RTibPost	29RPeroneusLong	30RSol	31RExtDigLong	32RFlexDigLong
28.44	-0.045166	-1.9075	0.064545	-0.00473	0.020599	0.046387	-0.23163	0.018616	-0.25696	0.013885	0.040588	0.012207	-0.026093	-0.025024	0.039978	0.037994	0.044708	0.13825	0.5629	-0.18433	-0.23407	-0.09964	-0.068817	0.12146	-0.020142	0.063171	-0.14694	0.059052	0.22888	-0.032349	0.004425	0.005646
28.441	-0.032806	-1.7441	0.059967	-0.016479	0.010071	0.045319	-0.15884	0.018311	-0.28122	-0.018921	-0.052948	0.009918	0.050964	0.02182	-0.28595	0.03418	0.078735	0.088959	0.03067	-0.026245	-0.2771	0.10162	-0.13397	0.03891	0.051422	0.068359	0.051117	0.014343	0.95108	0.003052	0.001526	0.004272
28.442	-0.016174	-1.5886	0.059967	-0.009003	0.019836	0.057831	-0.15503	0.022888	-0.27527	-0.042267	-0.11551	0.014038	0.11978	-0.00061	-0.36224	0.018921	0.067139	-0.015717	0.13763	0.090485	-0.11078	0.16388	0.007019	-0.03952	0.027618	0.024872	-0.001526	0.00473	0.57602	0.14603	0.001373	0.005798
28.443	-0.016327	-1.3901	0.044098	-0.000458	0.018616	0.045166	-0.16083	0.021667	-0.2829	-0.026855	0.007324	0.017395	0.10269	0.041656	-0.1831	0.031586	-0.048065	-0.15915	-0.38116	0.1532	0.21957	0.20523	-0.020447	-0.004883	0.050812	-0.042877	0.018768	0.018005	0.81421	0.023193	0.003815	0.002747
28.444	0.003357	-1.2747	0.055695	0.001526	0.007324	0.028381	-0.19257	0.020142	-0.28198	-0.00473	0.064545	0.013733	0.007324	0.067139	0.20523	0.042267	-0.048523	-0.20065	-0.55145	0.17288	0.061951	0.045624	-0.13001	-0.067749	0.033722	-0.075378	0.26825	0.000763	0.84824	-0.2533	0.000763	0.000916
28.445	0.006256	-1.324	0.076294	0.038757	0.012665	0.00473	-0.16083	0.02655	-0.29678	0.037231	-0.066681	0.021057	-0.038757	-0.018311	-0.067291	0.031128	-0.025482	-0.2388	-0.80948	0.10208	0.11902	0.045319	-0.073395	-0.09079	0.05127	-0.10605	0.30762	-0.11307	-0.69473	-0.33569	0.001526	-0.007629
28.446	0.003815	-1.4503	0.074463	0.054169	0.007629	0.000305	-0.1207	0.039215	-0.31616	0.093231	-0.097809	0.016632	-0.015259	-0.1091	-0.17303	0.018921	-0.029602	-0.20767	-0.53436	0.048523	-0.027161	0.13687	-0.049744	-0.007019	0.087433	-0.027313	0.056152	-0.04364	-1.0405	0.20447	0.001984	-0.00351
28.447	0	-1.4973	-0.007324	0.040894	0.017548	0.012207	-0.103	0.028839	-0.31693	0.096741	-0.098114	0.014954	0.024567	-0.15137	-0.20828	0.019684	-0.03479	-0.16434	-0.22186	0.058136	0.016174	-0.10544	-0.037079	0.077057	0.096893	-0.006866	-0.14496	0.10498	-0.51346	0.48035	0.004883	0.005951
28.448	-0.007477	-1.3763	0.009918	0.030212	0.009766	0.055695	-0.09079	0.027313	-0.31769	0.067291	-0.066223	0.018616	0.007477	-0.15396	0.15091	0.030212	-0.021973	-0.18433	-0.19073	0.034485	0.002747	-0.39764	0.047607	0.14404	0.1001	-0.003662	-0.31815	0.028076	0.72723	-0.019836	0.003662	0.007477
28.449	0.000458	-1.2846	0.039673	-0.006104	0.003357	0.061493	-0.092468	0.025482	-0.32837	0.047302	-0.005646	0.011139	-0.022583	-0.18723	0.20081	0.028534	-0.014801	-0.14236	-0.21683	-0.006409	-0.017242	-0.37506	0.10635	0.063477	0.065765	-0.022583	-0.07843	-0.010986	0.13641	-0.17654	0.008545	0.001068
28.45	0.005188	-1.2538	0.000153	-0.028381	0.007019	0.079803	-0.078278	0.021515	-0.31387	-0.034637	0.048828	0.020294	-0.013123	-0.1712	0.35187	0.036469	0.005646	-0.027771	-0.45303	-0.041962	-0.08606	-0.24185	0.14969	-0.004578	0.12054	-0.1178	-0.042419	-0.01358	1.0603	-0.24017	0.005035	-0.000153
28.451	-0.004883	-1.1917	0.06012	0.011749	0.010071	0.084534	-0.053711	0.022888	-0.34164	-0.095215	0.044403	0.014496	0.045776	-0.077209	0.2594	0.032349	0.017395	-0.085754	-0.2829	-0.046844	-0.23453	-0.16525	0.13367	-0.079041	0.17929	-0.17685	-0.077362	-0.027161	0.022125	-0.26627	0.002747	-0.004272
28.452	-0.009155	-1.0579	0.11505	0.042267	0.013123	0.095978	-0.055084	0.023499	-0.35187	-0.070801	-0.014496	0.018768	0.050049	-0.000305	0.13657	0.036163	0.016327	-0.17563	0.09903	-0.10117	-0.32181	-0.027161	0.11337	-0.1033	0.13153	-0.029297	0.18951	-0.028839	-1.8124	-0.19134	0.00412	-0.001373
28.453	-0.00412	-0.94955	0.07309	0.036926	0.000458	0.10498	-0.03952	0.022583	-0.36484	-0.014038	0.086212	0.016479	-0.027161	0.021973	0.087891	0.026245	0.015869	-0.20065	-0.018311	-0.11185	-0.073853	-0.047455	0.12482	-0.11719	0.008698	-0.020905	0.18036	-0.057831	-0.16144	-0.15503	0	0.003052
28.454	-0.00824	-0.69748	0.075378	0.014496	-0.003357	0.092621	-0.028076	0.032806	-0.39642	0.021057	0.018921	0.020905	-0.018463	0.075989	0.09964	0.013275	0.00946	-0.13306	0.12405	-0.14008	0.24506	0.091248	0.046692	-0.18387	-0.10651	-0.17731	0.13657	-0.25482	0.58029	0.018158	-0.003204	0.000458
28.455	-0.005951	-0.45166	0.086975	0.033875	-0.000153	0.093079	-0.001984	0.024109	-0.40878	-0.000305	0.017853	0.019836	0.033264	0.084686	0.10284	0.007019	-0.019226	-0.11597	0.36468	-0.064697	0.42023	0.15182	-0.13565	-0.045929	-0.15137	-0.030212	0.28442	0.074005	-0.92239	0.037079	0.00061	-0.005493
28.456	0.002289	-0.28992	0.092163	0.038147	-0.005035	0.10422	0.002899	0.027618	-0.41184	-0.020294	0.10941	0.013428	0.04776	-0.026398	0.17181	0.022888	0.010681	-0.07309	0.041809	0.038757	0.33569	-0.006561	-0.054474	-0.028992	-0.19165	0.20645	0.19669	0.33142	-1.886	-0.16022	0.000916	-0.012817
28.457	0.000305	-0.11139	0.078735	0.015564	-0.001831	0.0737	0.026855	0.013428	-0.42084	0.006714	0.21423	0.014496	0.050201	-0.050659	-0.22278	0.026398	0.009155	-0.094299	-0.36148	0.12528	0.18005	-0.054626	0.033264	0.12711	-0.13229	0.16144	0.093689	0.028076	-1.0869	0.25116	0.001221	-0.007935
28.458	-0.005341	0.052948	0.069427	-0.007477	0.011902	0.078583	0.031586	0.006256	-0.42633	0.01297	0.121	0.010376	0.060272	-0.042725	-0.30106	0.025635	-0.010834	-0.058899	-0.65597	0.047455	-0.092621	0.026398	0.18997	0.24933	-0.050507	0.052338	0.052338	-0.053253	0.7605	0.35111	0.006866	-0.007935
28.459	0.000305	0.18631	0.070343	0.000153	0.007935	0.11093	0.027313	0.013275	-0.43884	0.008698	-0.10635	0.025787	0.065002	0.040741	-0.34943	0.024719	0.001526	0.019684	0.22034	-0.11124	-0.074768	0.061798	0.19257	0.20615	0.020905	-0.009613	0.13931	0.016327	1.0146	0.09491	-0.000153	-0.005493
28.46	-0.012512	0.30853	0.068054	-0.010071	-0.003357	0.10803	0.011902	0.019989	-0.45349	0.000763	0.002289	0.010986	0.078278	0.077667	0.062256	0.027771	-0.011292	0.13199	0.2536	-0.1683	-0.029144	0.12192	0.16571	0.10086	0.048523	0.018768	0.36972	0.003357	-1.555	0.042725	0.000763	-0.008392
28.461	-0.008545	0.42099	0.051117	-0.003052	-0.012207	0.074768	0.03891	0.026093	-0.48675	0.002136	0.065613	0.01709	0.094604	0.050659	0.092926	0.019836	-0.016327	0.043182	-0.009766	-0.072021	-0.086823	0.13733	0.037231	0.047913	0.09491	0.054321	0.35065	-0.010986	0.075684	0.018768	-0.000763	0.002747
28.462	0.00473	0.52856	0.055847	0.007172	-0.028687	0.023651	0.016022	0.025482	-0.50308	-0.002899	0.073395	0.014648	0.04303	0.016327	-0.014343	0.016632	-0.0177	0.086517	0.21378	-0.040588	-0.08728	0.12787	-0.19134	-0.01236	0.054626	0.06073	0.034943	-0.00824	2.1556	-0.00061	-0.001068	0.006866
28.463	0	0.62424	0.045624	0.001221	-0.007172	-0.002441	0.004425	0.021973	-0.5304	-0.002747	0.10056	0.022125	0.003967	0.005951	-0.010986	0.015411	-0.016785	-0.018616	0.36331	-0.041199	0.052795	0.12085	-0.30716	-0.13626	-0.055542	0.052948	-0.15411	0.002899	0.36896	-0.025024	-0.007782	-0.002747
28.464	0.007629	0.70557	0.051575	-0.007019	-0.00946	0.020447	-0.000153	0.020752	-0.55847	-0.017853	-0.014954	0.019989	0.090637	-0.006104	0.077515	0.003204	-0.025635	0.015869	0.99014	-0.068817	0.10376	0.086212	-0.16251	-0.058594	-0.000916	0.043793	-0.10635	0.010986	-0.67322	-0.39795	-0.001984	0.001373
28.465	0.004578	0.78201	0.048981	-0.004272	-0.020142	0.019836	0.007019	0.019531	-0.5481	-0.011902	-0.27924	0.019226	0.12772	-0.010986	0.24323	0.011292	-0.010223	-0.013275	0.54443	0.024719	0.035553	0.056763	-0.13336	0.017395	0.005798	0.033417	-0.25177	-0.005646	0.029297	-0.41489	0.000458	0
28.466	0.002289	0.83725	0.036621	0.014496	-0.04303	-0.007477	0.011749	0.021667	-0.50476	0.061798	-0.11017	0.018768	0.010376	-0.063019	-0.029297	0.006256	-0.007019	-0.028534	0.37872	0.063477	0.018311	0.051727	-0.34668	0.19699	0.068817	0.018005	-0.1416	-0.01297	-1.0255	-0.27405	0.001831	-0.012207
